<svg width="20" height="20" fill="none" xmlns="http://www.w3.org/2000/svg"><path d="M10 20c5.523 0 10-4.477 10-10S15.523 0 10 0 0 4.477 0 10s4.477 10 10 10z" fill="#273B7A"/><path d="M19.775 12.116L13.66 6l-5.098.407L5.96 8.785l.335 5.17 5.789 5.827a10.012 10.012 0 007.692-7.666z" fill="#121149"/><path d="M10.218 9.08v1.917h2.997A3.366 3.366 0 016.635 10 3.365 3.365 0 0110 6.634a3.35 3.35 0 012.255.873L13.66 6a5.422 5.422 0 101.68 3.08h-5.123z" fill="#4285F4"/><path d="M10 6.635c.869 0 1.658.331 2.255.872L13.66 6a5.42 5.42 0 00-8.45 1.46l1.653 1.325A3.364 3.364 0 0110 6.635z" fill="#EA4335"/><path d="M6.635 10c0-.428.083-.837.23-1.214L5.21 7.461A5.397 5.397 0 004.58 10c0 .922.23 1.79.637 2.55l1.644-1.348A3.351 3.351 0 016.636 10z" fill="#FBBC05"/><path d="M11.871 12.796a3.343 3.343 0 01-1.87.57 3.363 3.363 0 01-3.14-2.163l-1.645 1.348a5.42 5.42 0 008.308 1.568l-1.653-1.323z" fill="#34A853"/><path d="M15.422 10c0-.314-.03-.62-.08-.92h-5.124v1.917h2.997a3.371 3.371 0 01-1.344 1.798l1.653 1.323A5.408 5.408 0 0015.422 10z" fill="#4285F4"/></svg>