<svg width="20" height="20" fill="none" xmlns="http://www.w3.org/2000/svg"><path d="M16.423 19.658a60.414 60.414 0 01-12.846 0 3.642 3.642 0 01-3.235-3.235 60.407 60.407 0 010-12.846A3.642 3.642 0 013.577.342a60.407 60.407 0 0112.846 0 3.642 3.642 0 013.235 3.235 60.413 60.413 0 010 12.846 3.641 3.641 0 01-3.235 3.235z" fill="url(#paint0_linear_0_183)"/><path d="M18.57 4.3a3.231 3.231 0 00-2.87-2.87 53.624 53.624 0 00-11.4 0A3.232 3.232 0 001.43 4.3a53.623 53.623 0 000 11.4 3.232 3.232 0 002.87 2.87c3.797.405 7.604.405 11.4 0a3.231 3.231 0 002.87-2.87 53.593 53.593 0 000-11.4z" fill="url(#paint1_linear_0_183)"/><path d="M.3 16.008l.043.415a3.642 3.642 0 003.235 3.235c4.277.456 8.567.456 12.845 0a3.642 3.642 0 003.235-3.235l.043-.415H.3z" fill="url(#paint2_linear_0_183)"/><path d="M19.996 9.297l-4.151-4.151a4.956 4.956 0 01-1.185.495 3.389 3.389 0 01-.417.086 2.578 2.578 0 00-4.372 2.316c-.594-.01-2.526-.168-4.368-1.747l-.87-.87s-1.019 1.78.48 3.13c.066.073.138.146.217.217l.02.02c-.197-.013-.789-.071-1.131-.313 0 0-.07 1.087.837 1.887l.731.738c-.223.019-.469.014-.64-.06 0 0 .151.643.738 1.159l1.024 1.03a5.305 5.305 0 01-3.107.692L10.018 20a60.46 60.46 0 006.405-.343 3.642 3.642 0 003.235-3.234c.253-2.373.365-4.75.338-7.126z" fill="url(#paint3_linear_0_183)"/><path d="M16.198 6.147c-.442.232-1.109.339-1.33.37l-.005-.032c.751-.464.981-1.34.981-1.34a4.952 4.952 0 01-1.184.496 3.417 3.417 0 01-.417.086A2.578 2.578 0 009.87 8.043c-.69-.01-3.177-.222-5.238-2.616 0 0-1.147 2.002.782 3.37 0 0-.782-.024-1.197-.317 0 0-.122 1.93 2.1 2.54 0 0-.78.195-1.172.024 0 0 .391 1.661 2.345 1.783 0 0-1.401 1.283-3.69 1.099a7.284 7.284 0 0011.173-6.31l.002-.089-.001-.063c.744-.495 1.223-1.317 1.223-1.317z" fill="#fff"/><defs><linearGradient id="paint0_linear_0_183" x1="6.64" y1="2.812" x2="11.699" y2="13.635" gradientUnits="userSpaceOnUse"><stop stop-color="#00C3FF"/><stop offset="1" stop-color="#00B0ED"/></linearGradient><linearGradient id="paint1_linear_0_183" x1="14.23" y1="12.269" x2="-14.828" y2="-3.318" gradientUnits="userSpaceOnUse"><stop stop-color="#00B0ED" stop-opacity="0"/><stop offset="1" stop-color="#00A2CE"/></linearGradient><linearGradient id="paint2_linear_0_183" x1="10" y1="17.085" x2="10" y2="19.706" gradientUnits="userSpaceOnUse"><stop stop-color="#00B0ED" stop-opacity="0"/><stop offset="1" stop-color="#00A2CE"/></linearGradient><linearGradient id="paint3_linear_0_183" x1="19.118" y1="18.831" x2="9.348" y2="9.06" gradientUnits="userSpaceOnUse"><stop stop-color="#00B0ED" stop-opacity="0"/><stop offset="1" stop-color="#00A2CE"/></linearGradient></defs></svg>